<svg xmlns="http://www.w3.org/2000/svg" fill="none" viewBox="0.98 0.02 24 24">
<path d="M24.6151 14.9203C23.0125 21.349 16.5013 25.2613 10.0719 23.6582C3.6452 22.0555 -0.26714 15.544 1.33625 9.11585C2.93823 2.68651 9.4494 -1.22612 15.8768 0.376567C22.3057 1.97925 26.2178 8.49153 24.615 14.9205L24.6151 14.9203H24.6151Z" fill="#F7931A"/>
<path d="M18.287 10.2875C18.5258 8.69056 17.31 7.83215 15.6475 7.2595L16.1868 5.09631L14.87 4.7682L14.345 6.87443C13.9988 6.78809 13.6433 6.70674 13.29 6.62609L13.8188 4.50595L12.5028 4.17783L11.9632 6.34032C11.6767 6.2751 11.3954 6.21064 11.1224 6.14271L11.1239 6.13591L9.308 5.68245L8.95771 7.08888C8.95771 7.08888 9.93467 7.31282 9.91408 7.3266C10.4473 7.45969 10.5437 7.81268 10.5277 8.09246L9.91338 10.5568C9.9501 10.5662 9.99772 10.5797 10.0503 10.6008C10.0063 10.5899 9.9596 10.578 9.91109 10.5663L9.04998 14.0186C8.98481 14.1806 8.8194 14.4237 8.44659 14.3314C8.45979 14.3505 7.48952 14.0926 7.48952 14.0926L6.83575 15.5999L8.54936 16.0271C8.86815 16.107 9.18054 16.1906 9.48819 16.2693L8.94328 18.4573L10.2586 18.7854L10.7982 16.6206C11.1575 16.7182 11.5062 16.8082 11.8476 16.893L11.3098 19.0476L12.6266 19.3757L13.1715 17.1918C15.4169 17.6167 17.1053 17.4454 17.816 15.4144C18.3886 13.7792 17.7874 12.8361 16.6061 12.221C17.4665 12.0226 18.1146 11.4567 18.2874 10.2877L18.287 10.2874L18.287 10.2875ZM15.2784 14.5063C14.8714 16.1415 12.1183 15.2576 11.2257 15.0359L11.9488 12.1372C12.8413 12.36 15.7037 12.801 15.2784 14.5063H15.2784ZM15.6856 10.2638C15.3144 11.7512 13.0229 10.9955 12.2796 10.8102L12.9352 8.18126C13.6785 8.36656 16.0723 8.71238 15.6857 10.2638H15.6856Z" fill="white"/>
</svg>