<svg xmlns="http://www.w3.org/2000/svg" width="144" height="48" viewBox="0 0 144 48" fill="none">
<g clip-path="url(#clip0_4587_5628)">
<path d="M132.533 -8.81406e-05H11.4737C11.0325 -8.81406e-05 10.5965 -8.81405e-05 10.1564 0.00231186C9.78796 0.00471186 9.42249 0.0116839 9.05054 0.0175519C8.24249 0.027034 7.43635 0.0979234 6.63911 0.229604C5.84299 0.364151 5.07181 0.617811 4.35165 0.982004C3.63237 1.34928 2.97514 1.82651 2.40381 2.3964C1.82948 2.96468 1.35074 3.62153 0.98598 4.3417C0.620217 5.06044 0.366595 5.83064 0.233875 6.62569C0.0998928 7.41973 0.0277959 8.22294 0.018231 9.02809C0.00706378 9.39601 0.00588447 9.76515 0 10.1331V37.8702C0.00588447 38.2428 0.00706378 38.6038 0.018231 38.9765C0.0277988 39.7816 0.0998957 40.5848 0.233875 41.3788C0.366228 42.1743 0.619865 42.9449 0.98598 43.664C1.35057 44.3818 1.82939 45.036 2.40381 45.6011C2.97298 46.1735 3.63063 46.6511 4.35165 47.0156C5.0718 47.3807 5.8429 47.6359 6.63911 47.7725C7.43648 47.9031 8.24254 47.9741 9.05054 47.9847C9.42249 47.9928 9.78796 47.9975 10.1564 47.9975C10.5965 47.9999 11.0325 47.9999 11.4737 47.9999H132.533C132.965 47.9999 133.405 47.9999 133.837 47.9975C134.204 47.9975 134.58 47.9928 134.947 47.9847C135.753 47.9746 136.558 47.9037 137.353 47.7725C138.152 47.6349 138.926 47.3798 139.65 47.0156C140.37 46.6509 141.027 46.1733 141.596 45.6011C142.169 45.0338 142.648 44.3801 143.018 43.664C143.381 42.9444 143.632 42.1738 143.763 41.3788C143.897 40.5847 143.971 39.7817 143.986 38.9765C143.991 38.6038 143.991 38.2428 143.991 37.8702C144 37.4343 144 37.0007 144 36.5577V11.4433C144 11.0038 144 10.5679 143.991 10.1331C143.991 9.76515 143.991 9.39601 143.986 9.02804C143.971 8.22282 143.897 7.4198 143.763 6.62564C143.632 5.83105 143.381 5.06092 143.018 4.34166C142.275 2.89815 141.097 1.72314 139.65 0.981896C138.926 0.618593 138.152 0.365 137.353 0.229496C136.558 0.0972352 135.753 0.0263212 134.947 0.0173839C134.58 0.0115279 134.204 0.00449586 133.837 0.00215586C133.405 -0.000244141 132.965 -0.000244141 132.533 -0.000244141V-8.81406e-05Z" fill="#151515"/>
<path d="M10.1622 46.9501C9.79559 46.9501 9.4378 46.9454 9.07403 46.9372C8.32046 46.9274 7.56865 46.862 6.82477 46.7415C6.13114 46.6224 5.45919 46.4008 4.8311 46.084C4.20877 45.7699 3.64115 45.358 3.14999 44.8641C2.65173 44.376 2.2369 43.8099 1.92194 43.1883C1.60352 42.5626 1.38315 41.8919 1.26852 41.1996C1.14472 40.4558 1.07774 39.7036 1.06815 38.9496C1.06053 38.6966 1.05054 37.8539 1.05054 37.8539V10.1333C1.05054 10.1333 1.06117 9.30357 1.06821 9.05981C1.07739 8.30703 1.14398 7.55603 1.26741 6.81332C1.38226 6.11915 1.6028 5.44655 1.92139 4.8188C2.23519 4.19758 2.64771 3.63108 3.14298 3.14126C3.63769 2.64679 4.20712 2.23277 4.83051 1.9143C5.45716 1.59856 6.12783 1.37853 6.82006 1.26157C7.56639 1.13985 8.32081 1.07404 9.07699 1.0647L10.1628 1.05005H133.831L134.93 1.06529C135.679 1.07417 136.427 1.13939 137.166 1.2604C137.866 1.37882 138.543 1.60039 139.177 1.91782C140.426 2.55963 141.442 3.57504 142.083 4.82173C142.397 5.44514 142.614 6.11226 142.727 6.80044C142.852 7.54924 142.922 8.30614 142.936 9.06509C142.94 9.40493 142.94 9.76997 142.94 10.1333C142.949 10.5833 142.949 11.0116 142.949 11.4434V36.5578C142.949 36.9938 142.949 37.4192 142.94 37.8481C142.94 38.2383 142.94 38.5958 142.935 38.9637C142.921 39.7091 142.852 40.4525 142.73 41.1879C142.617 41.8852 142.398 42.5611 142.08 43.1919C141.763 43.8068 141.35 44.368 140.858 44.8547C140.366 45.3513 139.797 45.7656 139.174 46.0817C138.542 46.4009 137.865 46.6233 137.166 46.7415C136.423 46.8626 135.671 46.9281 134.917 46.9372C134.565 46.9454 134.196 46.9501 133.837 46.9501L132.533 46.9524L10.1622 46.9501Z" fill="white"/>
<path d="M30.0803 23.8673C30.0937 22.8258 30.3712 21.8045 30.8868 20.8986C31.4024 19.9927 32.1394 19.2316 33.0292 18.6861C32.4639 17.881 31.7182 17.2185 30.8512 16.7511C29.9842 16.2837 29.0198 16.0243 28.0348 15.9936C25.9334 15.7736 23.8962 17.2475 22.8254 17.2475C21.7338 17.2475 20.0851 16.0154 18.3098 16.0518C17.1614 16.0888 16.0423 16.4218 15.0613 17.0184C14.0804 17.6149 13.2712 18.4547 12.7125 19.4559C10.2924 23.6343 12.0975 29.7751 14.4158 33.1527C15.5757 34.8065 16.9313 36.654 18.7051 36.5885C20.4408 36.5167 21.0891 35.4847 23.1843 35.4847C25.26 35.4847 25.8682 36.5885 27.678 36.5468C29.5405 36.5167 30.714 34.8856 31.8332 33.216C32.6666 32.0376 33.3079 30.7352 33.7333 29.357C32.6513 28.9006 31.7278 28.1367 31.0782 27.1605C30.4286 26.1842 30.0815 25.0389 30.0803 23.8673Z" fill="#151515"/>
<path d="M26.662 13.7721C27.6775 12.5564 28.1778 10.9939 28.0567 9.41626C26.5052 9.57876 25.072 10.3182 24.0428 11.4872C23.5395 12.0584 23.1541 12.7228 22.9085 13.4425C22.663 14.1622 22.562 14.9232 22.6116 15.6818C23.3876 15.6898 24.1553 15.5221 24.8569 15.1913C25.5585 14.8605 26.1757 14.3753 26.662 13.7721Z" fill="#151515"/>
<path d="M50.9046 32.5682H45.2086L43.8407 36.5959H41.4281L46.8233 21.6943H49.3299L54.7251 36.5959H52.2713L50.9046 32.5682ZM45.7985 30.7096H50.3136L48.0878 24.1729H48.0255L45.7985 30.7096Z" fill="#151515"/>
<path d="M66.3769 31.1635C66.3769 34.5397 64.5648 36.7088 61.8302 36.7088C61.1374 36.7449 60.4485 36.5858 59.8423 36.2496C59.236 35.9135 58.737 35.4139 58.4022 34.808H58.3505V40.1893H56.1141V25.7307H58.2788V27.5377H58.3199C58.67 26.9347 59.1775 26.4377 59.7884 26.0995C60.3993 25.7613 61.0907 25.5945 61.789 25.617C64.5542 25.617 66.3769 27.7967 66.3769 31.1635ZM64.0783 31.1635C64.0783 28.9639 62.9383 27.5178 61.1991 27.5178C59.4904 27.5178 58.3411 28.9943 58.3411 31.1635C58.3411 33.3526 59.4904 34.8186 61.1991 34.8186C62.9384 34.8186 64.0782 33.383 64.0782 31.1635H64.0783Z" fill="#151515"/>
<path d="M78.3688 31.1635C78.3688 34.5397 76.5561 36.7088 73.8215 36.7088C73.1288 36.7449 72.4399 36.5858 71.8336 36.2496C71.2274 35.9135 70.7283 35.4139 70.3936 34.808H70.3418V40.1893H68.1055V25.7307H70.2701V27.5377H70.3113C70.6614 26.9347 71.1689 26.4377 71.7797 26.0995C72.3906 25.7613 73.082 25.5945 73.7803 25.617C76.5455 25.617 78.3688 27.7967 78.3688 31.1635ZM76.0696 31.1635C76.0696 28.9639 74.9297 27.5178 73.1904 27.5178C71.4818 27.5178 70.3324 28.9943 70.3324 31.1635C70.3324 33.3526 71.4818 34.8186 73.1904 34.8186C74.9297 34.8186 76.0696 33.383 76.0696 31.1635Z" fill="#151515"/>
<path d="M86.2929 32.4432C86.4586 33.9209 87.8982 34.8912 89.8654 34.8912C91.7504 34.8912 93.1065 33.9209 93.1065 32.5884C93.1065 31.4318 92.2886 30.7392 90.352 30.2646L88.4153 29.7994C85.6713 29.1384 84.3974 27.8587 84.3974 25.7822C84.3974 23.2111 86.6443 21.4451 89.8337 21.4451C92.9926 21.4451 95.1572 23.2111 95.2301 25.7822H92.9726C92.8374 24.2951 91.6047 23.3974 89.8031 23.3974C88.0016 23.3974 86.7689 24.3056 86.7689 25.6275C86.7689 26.681 87.5562 27.3009 89.4823 27.7755L91.1287 28.1786C94.1947 28.9017 95.4674 30.1298 95.4674 32.3095C95.4674 35.0974 93.2417 36.8435 89.6997 36.8435C86.3857 36.8435 84.1482 35.1384 84.0037 32.4431L86.2929 32.4432Z" fill="#151515"/>
<path d="M100.296 23.1597V25.7308H102.368V27.4968H100.296V33.4862C100.296 34.4167 100.711 34.8503 101.622 34.8503C101.868 34.846 102.113 34.8288 102.357 34.7987V36.5542C101.948 36.6305 101.532 36.665 101.115 36.6573C98.9096 36.6573 98.0493 35.8311 98.0493 33.7241V27.4968H96.4652V25.7308H98.0493V23.1597H100.296Z" fill="#151515"/>
<path d="M103.567 31.1636C103.567 27.7452 105.586 25.5972 108.734 25.5972C111.893 25.5972 113.902 27.7452 113.902 31.1636C113.902 34.5913 111.903 36.73 108.734 36.73C105.566 36.73 103.567 34.5913 103.567 31.1636ZM111.624 31.1636C111.624 28.8187 110.546 27.4347 108.734 27.4347C106.922 27.4347 105.844 28.8292 105.844 31.1636C105.844 33.5179 106.922 34.8913 108.734 34.8913C110.546 34.8913 111.624 33.5179 111.624 31.1636Z" fill="#151515"/>
<path d="M115.746 25.7308H117.879V27.58H117.931C118.075 27.0025 118.414 26.4921 118.892 26.1346C119.369 25.7771 119.955 25.5944 120.551 25.6171C120.809 25.6162 121.066 25.6441 121.318 25.7003V27.7863C120.992 27.6871 120.653 27.6416 120.313 27.6515C119.988 27.6384 119.664 27.6955 119.363 27.819C119.063 27.9424 118.792 28.1293 118.571 28.3668C118.35 28.6042 118.182 28.8867 118.081 29.1947C117.979 29.5027 117.946 29.829 117.982 30.1511V36.5953H115.746L115.746 25.7308Z" fill="#151515"/>
<path d="M131.628 33.4042C131.328 35.3765 129.401 36.73 126.937 36.73C123.768 36.73 121.801 34.6124 121.801 31.2151C121.801 27.8073 123.778 25.5972 126.843 25.5972C129.857 25.5972 131.753 27.662 131.753 30.9561V31.7202H124.058V31.855C124.023 32.2548 124.073 32.6576 124.205 33.0366C124.338 33.4156 124.55 33.7622 124.827 34.0532C125.104 34.3443 125.44 34.5732 125.813 34.7248C126.186 34.8763 126.587 34.9471 126.989 34.9323C127.517 34.9817 128.048 34.8596 128.501 34.5843C128.954 34.309 129.306 33.8951 129.505 33.4042L131.628 33.4042ZM124.069 30.1616H129.515C129.536 29.8021 129.481 29.4423 129.355 29.1049C129.229 28.7674 129.034 28.4596 128.783 28.2007C128.533 27.9417 128.231 27.7373 127.897 27.6003C127.563 27.4632 127.204 27.3965 126.843 27.4042C126.479 27.402 126.118 27.4718 125.781 27.6095C125.444 27.7472 125.138 27.9501 124.88 28.2064C124.622 28.4628 124.417 28.7676 124.278 29.1031C124.139 29.4387 124.068 29.7985 124.069 30.1616V30.1616Z" fill="#151515"/>
<path d="M45.5188 10.4766C45.9877 10.4431 46.4581 10.5137 46.8963 10.6834C47.3345 10.8532 47.7294 11.1177 48.0526 11.4581C48.3758 11.7984 48.6192 12.2061 48.7653 12.6516C48.9114 13.0971 48.9565 13.5694 48.8974 14.0344C48.8974 16.3219 47.6576 17.6368 45.5188 17.6368H42.9252V10.4766H45.5188ZM44.0405 16.6242H45.3942C45.7293 16.6442 46.0645 16.5894 46.3757 16.4639C46.6868 16.3383 46.9659 16.1452 47.1927 15.8985C47.4196 15.6519 47.5884 15.3578 47.6869 15.0379C47.7854 14.718 47.8111 14.3801 47.7622 14.049C47.8076 13.7192 47.7792 13.3835 47.6792 13.0659C47.5792 12.7483 47.41 12.4567 47.1837 12.212C46.9573 11.9673 46.6796 11.7755 46.3702 11.6504C46.0608 11.5253 45.7276 11.47 45.3942 11.4885H44.0405V16.6242Z" fill="#151515"/>
<path d="M50.1572 14.9328C50.1231 14.5777 50.1638 14.2194 50.2768 13.8809C50.3897 13.5425 50.5723 13.2312 50.8129 12.9673C51.0535 12.7033 51.3468 12.4924 51.6739 12.348C52.0011 12.2037 52.3548 12.1292 52.7126 12.1292C53.0703 12.1292 53.4241 12.2037 53.7512 12.348C54.0783 12.4924 54.3716 12.7033 54.6122 12.9673C54.8528 13.2312 55.0354 13.5425 55.1484 13.8809C55.2613 14.2194 55.302 14.5777 55.268 14.9328C55.3027 15.2883 55.2624 15.647 55.1498 15.9861C55.0372 16.3251 54.8547 16.6369 54.614 16.9014C54.3733 17.1659 54.0798 17.3772 53.7524 17.5219C53.4249 17.6665 53.0707 17.7413 52.7126 17.7413C52.3544 17.7413 52.0002 17.6665 51.6728 17.5219C51.3453 17.3772 51.0518 17.1659 50.8111 16.9014C50.5705 16.6369 50.388 16.3251 50.2753 15.9861C50.1627 15.647 50.1225 15.2883 50.1572 14.9328ZM54.168 14.9328C54.168 13.7615 53.6403 13.0766 52.7143 13.0766C51.7848 13.0766 51.2619 13.7615 51.2619 14.9328C51.2619 16.1135 51.7848 16.7932 52.7143 16.7932C53.6404 16.7932 54.168 16.1088 54.168 14.9328H54.168Z" fill="#151515"/>
<path d="M62.0616 17.6369H60.9522L59.8323 13.6572H59.7477L58.6325 17.6369H57.5337L56.04 12.2334H57.1247L58.0954 16.3566H58.1753L59.2894 12.2334H60.3153L61.4293 16.3566H61.514L62.4799 12.2334H63.5493L62.0616 17.6369Z" fill="#151515"/>
<path d="M64.8056 12.2334H65.835V13.0918H65.915C66.0505 12.7835 66.2792 12.525 66.569 12.3525C66.8589 12.1799 67.1955 12.1018 67.532 12.1291C67.7956 12.1093 68.0604 12.149 68.3066 12.2451C68.5528 12.3412 68.7742 12.4913 68.9543 12.6843C69.1344 12.8774 69.2687 13.1083 69.3471 13.3601C69.4256 13.6119 69.4462 13.878 69.4076 14.1389V17.6369H68.3382V14.4067C68.3382 13.5383 67.9598 13.1065 67.1689 13.1065C66.9899 13.0981 66.8112 13.1285 66.645 13.1955C66.4789 13.2625 66.3292 13.3645 66.2064 13.4946C66.0835 13.6247 65.9902 13.7797 65.933 13.949C65.8758 14.1184 65.856 14.2981 65.875 14.4758V17.6369H64.8056L64.8056 12.2334Z" fill="#151515"/>
<path d="M71.1116 10.124H72.181V17.6369H71.1116V10.124Z" fill="#151515"/>
<path d="M73.6676 14.9329C73.6335 14.5778 73.6743 14.2195 73.7872 13.881C73.9002 13.5425 74.0828 13.2313 74.3235 12.9673C74.5641 12.7033 74.8574 12.4924 75.1846 12.348C75.5117 12.2037 75.8655 12.1292 76.2233 12.1292C76.581 12.1292 76.9348 12.2037 77.262 12.348C77.5891 12.4924 77.8824 12.7033 78.1231 12.9673C78.3637 13.2313 78.5463 13.5425 78.6593 13.881C78.7722 14.2195 78.813 14.5778 78.779 14.9329C78.8136 15.2884 78.7733 15.6472 78.6607 15.9862C78.548 16.3252 78.3655 16.637 78.1248 16.9015C77.8841 17.166 77.5906 17.3773 77.2631 17.522C76.9356 17.6666 76.5814 17.7413 76.2233 17.7413C75.8651 17.7413 75.5109 17.6666 75.1834 17.522C74.8559 17.3773 74.5624 17.166 74.3217 16.9015C74.0811 16.637 73.8985 16.3252 73.7859 15.9862C73.6732 15.6472 73.6329 15.2884 73.6676 14.9329ZM77.6784 14.9329C77.6784 13.7616 77.1507 13.0767 76.2247 13.0767C75.2952 13.0767 74.7723 13.7616 74.7723 14.9329C74.7723 16.1136 75.2952 16.7933 76.2247 16.7933C77.1508 16.7933 77.6784 16.1089 77.6784 14.9329H77.6784Z" fill="#151515"/>
<path d="M79.9047 16.1088C79.9047 15.1362 80.631 14.5754 81.9201 14.4957L83.3879 14.4114V13.945C83.3879 13.3743 83.0095 13.052 82.2786 13.052C81.6816 13.052 81.2679 13.2706 81.1492 13.6526H80.1139C80.2232 12.7245 81.0987 12.1292 82.3279 12.1292C83.6864 12.1292 84.4526 12.8036 84.4526 13.945V17.637H83.4232V16.8776H83.3386C83.1668 17.15 82.9257 17.372 82.6397 17.5211C82.3538 17.6701 82.0333 17.7408 81.711 17.726C81.4835 17.7496 81.2536 17.7254 81.036 17.6549C80.8185 17.5845 80.6182 17.4694 80.448 17.317C80.2779 17.1647 80.1416 16.9784 80.048 16.7703C79.9544 16.5622 79.9056 16.3369 79.9047 16.1088ZM83.3879 15.6471V15.1954L82.0647 15.2797C81.3184 15.3295 80.98 15.5827 80.98 16.059C80.98 16.5453 81.403 16.8284 81.9848 16.8284C82.1553 16.8456 82.3274 16.8284 82.4911 16.7779C82.6548 16.7274 82.8066 16.6446 82.9375 16.5343C83.0684 16.4241 83.1757 16.2888 83.2531 16.1364C83.3305 15.9839 83.3763 15.8176 83.3879 15.6471Z" fill="#151515"/>
<path d="M85.8581 14.9328C85.8581 13.2254 86.7383 12.1438 88.1074 12.1438C88.446 12.1282 88.7821 12.2091 89.0764 12.377C89.3706 12.5448 89.6109 12.7928 89.769 13.0918H89.849V10.124H90.9184V17.6369H89.8936V16.7832H89.809C89.6386 17.0802 89.39 17.325 89.09 17.4912C88.7901 17.6574 88.4503 17.7386 88.1074 17.726C86.7289 17.726 85.8581 16.6444 85.8581 14.9328ZM86.9628 14.9328C86.9628 16.0789 87.5045 16.7686 88.4106 16.7686C89.3119 16.7686 89.869 16.069 89.869 14.9375C89.869 13.8113 89.3061 13.1018 88.4106 13.1018C87.5104 13.1018 86.9627 13.7961 86.9627 14.9328H86.9628Z" fill="#151515"/>
<path d="M95.3428 14.9328C95.3088 14.5777 95.3495 14.2194 95.4624 13.8809C95.5754 13.5425 95.758 13.2312 95.9986 12.9673C96.2392 12.7033 96.5325 12.4924 96.8596 12.348C97.1867 12.2037 97.5405 12.1292 97.8982 12.1292C98.256 12.1292 98.6097 12.2037 98.9369 12.348C99.264 12.4924 99.5573 12.7033 99.7979 12.9673C100.038 13.2312 100.221 13.5425 100.334 13.8809C100.447 14.2194 100.488 14.5777 100.454 14.9328C100.488 15.2883 100.448 15.647 100.335 15.9861C100.223 16.3251 100.04 16.6369 99.7997 16.9014C99.559 17.1659 99.2655 17.3772 98.938 17.5219C98.6106 17.6665 98.2564 17.7413 97.8982 17.7413C97.5401 17.7413 97.1859 17.6665 96.8584 17.5219C96.531 17.3772 96.2375 17.1659 95.9968 16.9014C95.7561 16.6369 95.5736 16.3251 95.461 15.9861C95.3484 15.647 95.3081 15.2883 95.3428 14.9328ZM99.3537 14.9328C99.3537 13.7615 98.826 13.0766 97.9 13.0766C96.9704 13.0766 96.4475 13.7615 96.4475 14.9328C96.4475 16.1135 96.9705 16.7932 97.9 16.7932C98.826 16.7932 99.3537 16.1088 99.3537 14.9328Z" fill="#151515"/>
<path d="M101.889 12.2334H102.918V13.0918H102.998C103.133 12.7835 103.362 12.525 103.652 12.3525C103.942 12.1799 104.278 12.1018 104.615 12.1291C104.879 12.1093 105.143 12.149 105.39 12.2451C105.636 12.3412 105.857 12.4913 106.037 12.6843C106.217 12.8774 106.352 13.1083 106.43 13.3601C106.509 13.6119 106.529 13.878 106.49 14.1389V17.6369H105.421V14.4067C105.421 13.5383 105.043 13.1065 104.252 13.1065C104.073 13.0981 103.894 13.1285 103.728 13.1955C103.562 13.2625 103.412 13.3645 103.289 13.4946C103.166 13.6247 103.073 13.7797 103.016 13.949C102.959 14.1184 102.939 14.2981 102.958 14.4758V17.6369H101.889V12.2334Z" fill="#151515"/>
<path d="M112.533 10.8882V12.2581H113.707V13.1564H112.533V15.9349C112.533 16.5009 112.767 16.7487 113.299 16.7487C113.436 16.7483 113.572 16.7401 113.707 16.7241V17.6124C113.515 17.6467 113.321 17.6649 113.125 17.6669C111.936 17.6669 111.463 17.2497 111.463 16.2079V13.1563H110.602V12.2581H111.463V10.8882H112.533Z" fill="#151515"/>
<path d="M115.168 10.124H116.228V13.1018H116.312C116.455 12.7906 116.69 12.5307 116.985 12.3575C117.281 12.1842 117.623 12.1061 117.965 12.1338C118.227 12.1196 118.489 12.1632 118.733 12.2617C118.976 12.3601 119.195 12.5109 119.373 12.7033C119.551 12.8957 119.685 13.125 119.764 13.3748C119.843 13.6245 119.866 13.8886 119.831 14.1482V17.6369H118.76V14.4113C118.76 13.5482 118.357 13.1111 117.602 13.1111C117.418 13.0961 117.233 13.1213 117.06 13.185C116.887 13.2486 116.73 13.3492 116.6 13.4797C116.47 13.6102 116.37 13.7674 116.308 13.9404C116.245 14.1133 116.221 14.2979 116.237 14.481V17.6369H115.168L115.168 10.124Z" fill="#151515"/>
<path d="M126.066 16.1781C125.921 16.6719 125.606 17.0991 125.177 17.3849C124.748 17.6707 124.231 17.7968 123.718 17.7413C123.361 17.7507 123.007 17.6826 122.679 17.5415C122.351 17.4005 122.058 17.19 121.819 16.9246C121.581 16.6593 121.404 16.3454 121.299 16.0048C121.195 15.6642 121.166 15.3051 121.215 14.9523C121.168 14.5984 121.197 14.2385 121.301 13.8969C121.405 13.5553 121.582 13.24 121.818 12.9723C122.055 12.7046 122.347 12.4908 122.674 12.3453C123.001 12.1999 123.356 12.1262 123.714 12.1292C125.221 12.1292 126.131 13.1564 126.131 14.8532V15.2253H122.305V15.2851C122.288 15.4834 122.313 15.683 122.378 15.8711C122.443 16.0592 122.547 16.2317 122.683 16.3774C122.819 16.5231 122.984 16.639 123.167 16.7174C123.35 16.7959 123.548 16.8353 123.748 16.8331C124.004 16.8637 124.263 16.8178 124.492 16.7012C124.722 16.5845 124.911 16.4024 125.037 16.178L126.066 16.1781ZM122.305 14.4367H125.042C125.055 14.2553 125.03 14.0731 124.969 13.9019C124.908 13.7306 124.811 13.574 124.685 13.4422C124.56 13.3104 124.408 13.2062 124.24 13.1364C124.071 13.0666 123.89 13.0327 123.708 13.0369C123.523 13.0345 123.339 13.0692 123.168 13.1387C122.997 13.2082 122.841 13.3113 122.71 13.4417C122.579 13.5722 122.476 13.7274 122.407 13.8983C122.337 14.0692 122.302 14.2522 122.305 14.4367H122.305Z" fill="#151515"/>
</g>
<defs>
<clipPath id="clip0_4587_5628">
<rect width="144" height="48" fill="white"/>
</clipPath>
</defs>
</svg>