<svg width="130" height="30" viewBox="0 0 130 30" fill="none" xmlns="http://www.w3.org/2000/svg">
<g clip-path="url(#clip0_2_3043)">
<path d="M118.365 22.7781C118.386 22.8601 118.373 22.9466 118.331 23.0199C118.288 23.0933 118.219 23.148 118.136 23.1729C117.435 23.4068 116.7 23.5318 115.959 23.5433C114.664 23.5433 113.881 22.9 113.851 21.7107H113.777C113.233 22.2855 112.574 22.7448 111.841 23.0601C111.109 23.3754 110.317 23.5399 109.517 23.5433C107.389 23.5433 105.436 22.2078 105.436 19.7025V13.0542C105.436 12.7081 105.312 12.2841 104.903 12.2109L103.867 12.0111C103.82 12.008 103.775 11.996 103.733 11.9757C103.692 11.9553 103.654 11.9272 103.624 11.8927C103.593 11.8583 103.57 11.8183 103.555 11.7751C103.54 11.7318 103.535 11.6861 103.538 11.6407V11.1533C103.535 11.1058 103.541 11.0582 103.557 11.0133C103.574 10.9685 103.599 10.9274 103.632 10.8926C103.666 10.8579 103.706 10.8302 103.75 10.8113C103.795 10.7924 103.843 10.7827 103.892 10.7828L107.878 10.3393C107.928 10.3317 107.978 10.3342 108.027 10.3464C108.076 10.3587 108.122 10.3805 108.162 10.4105C108.202 10.4406 108.236 10.4783 108.26 10.5213C108.285 10.5644 108.301 10.6119 108.306 10.661V18.6351C108.306 20.4678 109.347 21.4133 110.892 21.4133C112.436 21.4133 113.632 20.4678 113.632 19.0543V13.0542C113.632 12.7081 113.503 12.2841 113.099 12.2109L112.058 12.0111C112.011 12.008 111.966 11.996 111.924 11.9757C111.882 11.9553 111.845 11.9272 111.815 11.8927C111.784 11.8583 111.761 11.8183 111.746 11.7751C111.731 11.7318 111.726 11.6861 111.729 11.6407V11.1533C111.726 11.1058 111.732 11.0582 111.748 11.0133C111.765 10.9685 111.79 10.9274 111.823 10.8926C111.857 10.8579 111.897 10.8302 111.941 10.8113C111.986 10.7924 112.034 10.7827 112.083 10.7828L116.069 10.3393C116.119 10.3317 116.17 10.3341 116.219 10.3463C116.268 10.3585 116.314 10.3803 116.355 10.4103C116.395 10.4403 116.429 10.4779 116.454 10.521C116.48 10.5641 116.496 10.6117 116.502 10.661V20.8284C116.502 21.3159 116.731 21.5937 117.185 21.5937C117.401 21.5891 117.615 21.5478 117.817 21.4718C117.865 21.4572 117.915 21.4537 117.964 21.4618C118.013 21.4698 118.059 21.4892 118.099 21.5182C118.139 21.5473 118.172 21.5851 118.194 21.6288C118.216 21.6724 118.227 21.7205 118.226 21.7692L118.365 22.7781Z" fill="white"/>
<path d="M51.2699 23.2688C51.2221 23.2743 51.1736 23.2691 51.1282 23.2536C51.0827 23.2382 51.0414 23.2128 51.0074 23.1795C50.9733 23.1462 50.9475 23.1058 50.9317 23.0614C50.9159 23.0169 50.9105 22.9695 50.9161 22.9227V22.4792C50.9141 22.388 50.9465 22.2993 51.0072 22.23C51.0679 22.1608 51.1525 22.1159 51.245 22.1039L52.3859 21.8845C52.6151 21.8309 52.8194 21.6116 52.8194 21.1144V15.1143C52.8194 13.2768 51.7283 12.3117 50.1289 12.3117C48.5296 12.3117 47.289 13.2865 47.289 14.6659V21.1144C47.289 21.6018 47.4933 21.8309 47.7225 21.8845L48.8634 22.1039C48.9559 22.1159 49.0405 22.1608 49.1012 22.23C49.1619 22.2993 49.1943 22.388 49.1923 22.4792V22.9227C49.1979 22.9695 49.1925 23.0169 49.1767 23.0614C49.1609 23.1058 49.135 23.1462 49.101 23.1795C49.067 23.2128 49.0257 23.2382 48.9802 23.2536C48.9348 23.2691 48.8863 23.2743 48.8385 23.2688H42.8598C42.812 23.2743 42.7635 23.2691 42.718 23.2536C42.6726 23.2382 42.6313 23.2128 42.5973 23.1795C42.5632 23.1462 42.5373 23.1058 42.5215 23.0614C42.5057 23.0169 42.5004 22.9695 42.506 22.9227V22.4792C42.504 22.388 42.5364 22.2993 42.5971 22.23C42.6578 22.1608 42.7424 22.1159 42.8348 22.1039L43.9758 21.8845C44.205 21.8309 44.4043 21.6116 44.4043 21.1144V13.0526C44.4043 12.7065 44.2797 12.2825 43.8761 12.2093L42.6306 12.0144C42.5362 12.0069 42.4487 11.9633 42.3872 11.893C42.3256 11.8227 42.2949 11.7314 42.3017 11.6391V11.1517C42.2983 11.1042 42.3049 11.0566 42.3212 11.0117C42.3374 10.9669 42.3629 10.9258 42.3961 10.891C42.4293 10.8563 42.4695 10.8286 42.5141 10.8097C42.5587 10.7908 42.6069 10.7811 42.6555 10.7812L46.4072 10.3377C46.6862 10.3084 46.8157 10.4595 46.8406 10.7081L46.9652 12.0972H47.0698C47.6404 11.5062 48.3275 11.0343 49.0896 10.7101C49.8517 10.3859 50.673 10.2161 51.504 10.2109C53.7361 10.2109 55.6643 11.5513 55.6643 14.0566V21.1242C55.6643 21.6116 55.8636 21.8407 56.0927 21.8943L57.2337 22.1136C57.3261 22.1256 57.4108 22.1705 57.4715 22.2398C57.5321 22.309 57.5646 22.3977 57.5625 22.4889V22.9325C57.5681 22.9792 57.5628 23.0266 57.547 23.0711C57.5312 23.1156 57.5053 23.156 57.4713 23.1893C57.4373 23.2226 57.396 23.2479 57.3505 23.2634C57.305 23.2788 57.2566 23.284 57.2088 23.2785L51.2699 23.2688Z" fill="white"/>
<path d="M123.926 17.3673C122.377 16.7483 121.236 15.8563 121.236 14.048C121.236 11.4939 123.727 10.1779 126.054 10.1779C127.058 10.1662 128.058 10.3076 129.018 10.5971C129.118 10.6265 129.205 10.6855 129.269 10.7659C129.332 10.8463 129.368 10.944 129.372 11.0455V13.5265C129.372 13.7507 129.247 13.8725 128.993 13.8725H128.41C128.206 13.8725 128.082 13.775 128.007 13.5265L127.803 12.7807C127.648 12.1861 127.04 11.8644 126.029 11.8644C125.017 11.8644 123.976 12.3518 123.976 13.3754C123.976 14.2673 124.733 14.6914 125.7 15.0862L127.17 15.6808C128.689 16.3047 130.109 17.2211 130.109 19.2048C130.109 22.0319 127.399 23.5428 124.838 23.5428C123.715 23.5394 122.598 23.3903 121.515 23.0993C121.417 23.0669 121.332 23.0071 121.269 22.9273C121.206 22.8476 121.168 22.7514 121.161 22.6509V19.975C121.161 19.7508 121.261 19.5997 121.515 19.5997H122.202C122.302 19.6001 122.398 19.636 122.472 19.7006C122.546 19.7652 122.594 19.8541 122.606 19.9506L122.835 20.8426C123.01 21.486 123.772 21.8174 124.888 21.8174C126.203 21.8174 127.294 21.1253 127.294 19.9603C127.294 18.9416 126.512 18.4445 125.471 18.0107L123.926 17.3673Z" fill="white"/>
<path d="M95.9457 11.7665C93.6937 11.7665 92.9065 14.2036 92.9065 15.8316C92.9065 16.0802 92.9564 16.1289 93.2105 16.1533C93.4646 16.1777 93.9977 16.202 94.4012 16.202C96.1749 16.202 98.0283 15.6074 98.0283 13.7991C98.029 13.5316 97.9755 13.2666 97.8711 13.0194C97.7666 12.7722 97.6131 12.5476 97.4195 12.3587C97.2259 12.1698 96.9961 12.0202 96.7431 11.9185C96.4902 11.8169 96.2192 11.7653 95.9457 11.7665ZM100.704 22.1924C100.725 22.2869 100.714 22.3858 100.673 22.4738C100.632 22.5618 100.562 22.6342 100.475 22.6798C99.2781 23.29 97.9478 23.6061 96.5984 23.601C92.1592 23.601 89.957 20.7984 89.957 16.8308C89.957 12.639 93.0211 10.085 96.3443 10.085C98.7757 10.085 100.908 11.5472 100.908 13.8771C100.908 16.6797 97.8141 17.869 94.9293 17.869C94.3464 17.869 93.8133 17.869 93.33 17.8202C93.1307 17.8202 93.0012 17.8446 93.0261 18.0932C93.1806 20.1793 95.1087 21.4417 97.0568 21.4417C98.0453 21.4281 99.0172 21.1912 99.8967 20.7496C99.9432 20.725 99.9949 20.7113 100.048 20.7094C100.1 20.7075 100.153 20.7176 100.201 20.7388C100.249 20.76 100.292 20.7918 100.326 20.8317C100.359 20.8716 100.383 20.9186 100.395 20.969L100.704 22.1924Z" fill="white"/>
<path d="M65.719 11.7665C63.467 11.7665 62.6798 14.2036 62.6798 15.8316C62.6798 16.0802 62.7296 16.1289 62.9837 16.1533C63.3125 16.1533 63.7709 16.202 64.1745 16.202C65.9482 16.202 67.8016 15.6074 67.8016 13.7991C67.8023 13.5316 67.7488 13.2666 67.6443 13.0194C67.5398 12.7722 67.3864 12.5476 67.1928 12.3587C66.9992 12.1698 66.7693 12.0202 66.5164 11.9185C66.2634 11.8169 65.9924 11.7653 65.719 11.7665ZM70.4871 22.1924C70.5085 22.2869 70.4977 22.3858 70.4563 22.4738C70.415 22.5618 70.3452 22.6342 70.2579 22.6798C69.0613 23.29 67.731 23.6061 66.3816 23.601C61.9424 23.601 59.7402 20.7984 59.7402 16.8308C59.7402 12.639 62.8043 10.085 66.1275 10.085C68.5589 10.085 70.6913 11.5472 70.6913 13.8771C70.6913 16.6797 67.5973 17.869 64.7126 17.869C64.1296 17.869 63.5965 17.869 63.1133 17.8202C62.914 17.8202 62.7844 17.8446 62.8093 18.0932C62.9638 20.1793 64.8919 21.4417 66.84 21.4417C67.8285 21.4281 68.8004 21.1912 69.6799 20.7496C69.7264 20.725 69.7781 20.7113 69.8309 20.7094C69.8837 20.7075 69.9363 20.7176 69.9845 20.7388C70.0327 20.76 70.0752 20.7918 70.1088 20.8317C70.1424 20.8716 70.1661 20.9186 70.1782 20.969L70.4871 22.1924Z" fill="white"/>
<path d="M77.9135 20.0963C77.9135 21.1394 78.5961 21.734 80.041 21.734C82.7812 21.734 83.7428 19.4285 83.7428 17.0451C83.7428 14.8127 82.7812 12.6827 80.4993 12.6827C79.0296 12.6827 77.9135 13.5503 77.9135 14.842V20.0963ZM75.0487 7.62334C75.0487 7.27727 74.9192 6.82885 74.5156 6.75574L73.4743 6.59489C73.4278 6.5918 73.3824 6.57976 73.3407 6.55945C73.299 6.53913 73.2617 6.51096 73.2312 6.47653C73.2006 6.44211 73.1773 6.40212 73.1626 6.35886C73.1479 6.3156 73.1421 6.26993 73.1455 6.22446V5.73704C73.142 5.68959 73.1487 5.64195 73.1649 5.59711C73.1811 5.55227 73.2066 5.51119 73.2398 5.47642C73.273 5.44166 73.3132 5.41397 73.3578 5.39507C73.4025 5.37618 73.4506 5.36649 73.4992 5.3666L77.4851 4.91818C77.5351 4.91132 77.5861 4.9142 77.635 4.92668C77.684 4.93915 77.7299 4.96096 77.7702 4.99085C77.8104 5.02075 77.8443 5.05815 77.8697 5.10088C77.8952 5.14362 77.9118 5.19085 77.9185 5.23988V12.0637H78.0082C79.0283 11.0918 80.3862 10.5329 81.8097 10.4991C84.829 10.4991 86.8318 13.0531 86.8318 16.3481C86.8318 20.8615 83.8425 23.5862 79.3584 23.5862C78.0526 23.5895 76.7534 23.4055 75.5021 23.0403C75.3694 23.0137 75.2509 22.9416 75.1677 22.8371C75.0846 22.7325 75.0424 22.6023 75.0487 22.47V7.62334Z" fill="white"/>
<rect width="29" height="30" rx="14.5" fill="white"/>
<ellipse cx="15.0209" cy="15.0827" rx="6.5" ry="8.5" transform="rotate(-11.1492 15.0209 15.0827)" fill="#151515"/>
</g>
<defs>
<clipPath id="clip0_2_3043">
<rect width="130" height="30" fill="white"/>
</clipPath>
</defs>
</svg>
