<svg width="24" height="24" viewBox="0 0 24 24" fill="none" xmlns="http://www.w3.org/2000/svg">
<path d="M15 5H16.7C18.3802 5 19.2202 5 19.862 5.32698C20.4265 5.6146 20.8854 6.07354 21.173 6.63803C21.5 7.27976 21.5 8.11984 21.5 9.8V14.2C21.5 15.8802 21.5 16.7202 21.173 17.362C20.8854 17.9265 20.4265 18.3854 19.862 18.673C19.2202 19 18.3802 19 16.7 19H13.5M13.5 19L16.5 16M13.5 19L16.5 22" stroke="white" stroke-width="2" stroke-linecap="round"/>
<path d="M9 19H7.3C5.61984 19 4.77976 19 4.13803 18.673C3.57354 18.3854 3.1146 17.9265 2.82698 17.362C2.5 16.7202 2.5 15.8802 2.5 14.2V9.8C2.5 8.11984 2.5 7.27976 2.82698 6.63803C3.1146 6.07354 3.57354 5.6146 4.13803 5.32698C4.77976 5 5.61984 5 7.3 5H10.5M10.5 5L7.5 8M10.5 5L7.5 2" stroke="white" stroke-width="2" stroke-linecap="round"/>
</svg>
