<svg xmlns="http://www.w3.org/2000/svg" width="162" height="48" viewBox="0 0 162 48" fill="none">
<path d="M6 0.5H156C159.077 0.5 161.5 3.02962 161.5 6V42C161.5 45.0839 159.084 47.5 156 47.5H6C2.91614 47.5 0.5 45.0839 0.5 42V6C0.5 2.91614 2.91614 0.5 6 0.5Z" fill="white" stroke="#151515"/>
<path d="M56.8801 12.24C56.8801 13.2 56.6401 14.04 56.0401 14.64C55.3201 15.36 54.4801 15.72 53.4001 15.72C52.3201 15.72 51.4801 15.36 50.7601 14.64C50.0401 13.92 49.6801 13.08 49.6801 12C49.6801 10.92 50.0401 10.08 50.7601 9.36003C51.4801 8.64003 52.3201 8.28003 53.4001 8.28003C53.8801 8.28003 54.3601 8.40003 54.8401 8.64003C55.3201 8.88003 55.68 9.12003 55.92 9.48003L55.32 10.08C54.84 9.48003 54.2401 9.24003 53.4001 9.24003C52.6801 9.24003 51.9601 9.48003 51.4801 10.08C50.8801 10.56 50.6401 11.28 50.6401 12.12C50.6401 12.96 50.8801 13.68 51.4801 14.16C52.0801 14.64 52.6801 15 53.4001 15C54.2401 15 54.8401 14.76 55.4401 14.16C55.8001 13.8 56.0401 13.32 56.0401 12.72H53.4001V11.88H56.8801C56.8801 11.88 56.8801 12.12 56.8801 12.24Z" fill="#1C1C1C"/>
<path d="M62.4001 9.24015H59.1601V11.5201H62.1601V12.3601H59.1601V14.6401H62.4001V15.6001H58.2001V8.40015H62.4001V9.24015Z" fill="#1C1C1C"/>
<path d="M66.36 15.6001H65.4V9.24015H63.36V8.40015H68.4V9.24015H66.36V15.6001Z" fill="#1C1C1C"/>
<path d="M71.88 15.6001V8.40015H72.84V15.6001H71.88Z" fill="#1C1C1C"/>
<path d="M76.92 15.6001H75.96V9.24015H73.92V8.40015H78.84V9.24015H76.8V15.6001H76.92Z" fill="#1C1C1C"/>
<path d="M88.3201 14.64C87.6001 15.36 86.7601 15.72 85.6801 15.72C84.6001 15.72 83.7601 15.36 83.0401 14.64C82.3201 13.92 81.9601 13.08 81.9601 12C81.9601 10.92 82.3201 10.08 83.0401 9.36003C83.7601 8.64003 84.6001 8.28003 85.6801 8.28003C86.7601 8.28003 87.6001 8.64003 88.3201 9.36003C89.0401 10.08 89.4001 10.92 89.4001 12C89.4001 13.08 89.0401 13.92 88.3201 14.64ZM83.7601 14.04C84.2401 14.52 84.9601 14.88 85.6801 14.88C86.4001 14.88 87.1201 14.64 87.6001 14.04C88.0801 13.56 88.4401 12.84 88.4401 12C88.4401 11.16 88.2001 10.44 87.6001 9.96003C87.1201 9.48003 86.4001 9.12003 85.6801 9.12003C84.9601 9.12003 84.2401 9.36003 83.7601 9.96003C83.2801 10.44 82.9201 11.16 82.9201 12C82.9201 12.84 83.1601 13.56 83.7601 14.04Z" fill="#1C1C1C"/>
<path d="M90.72 15.6001V8.40015H91.8L95.28 14.0401V12.6001V8.40015H96.24V15.6001H95.28L91.56 9.72015V11.1601V15.6001H90.72Z" fill="#1C1C1C"/>
<path d="M81.7199 26.16C78.8399 26.16 76.56 28.32 76.56 31.32C76.56 34.2 78.8399 36.48 81.7199 36.48C84.5999 36.48 86.88 34.32 86.88 31.32C86.88 28.2 84.5999 26.16 81.7199 26.16ZM81.7199 34.32C80.1599 34.32 78.8399 33 78.8399 31.2C78.8399 29.4 80.1599 28.08 81.7199 28.08C83.2799 28.08 84.5999 29.28 84.5999 31.2C84.5999 33 83.2799 34.32 81.7199 34.32ZM70.56 26.16C67.68 26.16 65.3999 28.32 65.3999 31.32C65.3999 34.2 67.68 36.48 70.56 36.48C73.44 36.48 75.7199 34.32 75.7199 31.32C75.7199 28.2 73.44 26.16 70.56 26.16ZM70.56 34.32C69 34.32 67.68 33 67.68 31.2C67.68 29.4 69 28.08 70.56 28.08C72.12 28.08 73.4399 29.28 73.4399 31.2C73.4399 33 72.12 34.32 70.56 34.32ZM57.2399 27.72V29.88H62.3999C62.2799 31.08 61.7999 32.04 61.1999 32.64C60.4799 33.36 59.2799 34.2 57.2399 34.2C53.9999 34.2 51.5999 31.68 51.5999 28.44C51.5999 25.2 54.1199 22.68 57.2399 22.68C58.9199 22.68 60.2399 23.4 61.1999 24.24L62.7599 22.68C61.4399 21.48 59.7599 20.52 57.3599 20.52C53.0399 20.52 49.3199 24.12 49.3199 28.44C49.3199 32.76 53.0399 36.36 57.3599 36.36C59.7599 36.36 61.44 35.64 62.88 34.08C64.32 32.64 64.7999 30.6 64.7999 29.04C64.7999 28.56 64.8 28.08 64.68 27.72H57.2399ZM111.72 29.4C111.24 28.2 110.04 26.16 107.4 26.16C104.76 26.16 102.6 28.2 102.6 31.32C102.6 34.2 104.76 36.48 107.64 36.48C109.92 36.48 111.36 35.04 111.84 34.2L110.16 33C109.56 33.84 108.84 34.44 107.64 34.44C106.44 34.44 105.72 33.96 105.12 32.88L111.96 30L111.72 29.4ZM104.76 31.08C104.76 29.16 106.32 28.08 107.4 28.08C108.24 28.08 109.08 28.56 109.32 29.16L104.76 31.08ZM99.1199 36H101.4V21H99.1199V36ZM95.5199 27.24C94.9199 26.64 93.96 26.04 92.76 26.04C90.24 26.04 87.8399 28.32 87.8399 31.2C87.8399 34.08 90.12 36.24 92.76 36.24C93.96 36.24 94.9199 35.64 95.3999 35.04H95.5199V35.76C95.5199 37.68 94.44 38.76 92.76 38.76C91.44 38.76 90.4799 37.8 90.2399 36.96L88.3199 37.8C88.9199 39.12 90.36 40.8 92.88 40.8C95.52 40.8 97.68 39.24 97.68 35.52V26.4H95.5199V27.24ZM92.88 34.32C91.32 34.32 90 33 90 31.2C90 29.4 91.32 28.08 92.88 28.08C94.44 28.08 95.6399 29.4 95.6399 31.2C95.6399 33 94.44 34.32 92.88 34.32ZM122.16 21H116.76V36H119.04V30.36H122.16C124.68 30.36 127.08 28.56 127.08 25.68C127.08 22.8 124.68 21 122.16 21ZM122.28 28.2H119.04V23.04H122.28C123.96 23.04 124.92 24.48 124.92 25.56C124.8 26.88 123.84 28.2 122.28 28.2ZM136.08 26.04C134.4 26.04 132.72 26.76 132.12 28.32L134.16 29.16C134.64 28.32 135.36 28.08 136.2 28.08C137.4 28.08 138.48 28.8 138.6 30V30.12C138.24 29.88 137.28 29.52 136.32 29.52C134.16 29.52 132 30.72 132 32.88C132 34.92 133.8 36.24 135.72 36.24C137.28 36.24 138 35.52 138.6 34.8H138.72V36H140.88V30.24C140.64 27.6 138.6 26.04 136.08 26.04ZM135.84 34.32C135.12 34.32 134.04 33.96 134.04 33C134.04 31.8 135.36 31.44 136.44 31.44C137.4 31.44 137.88 31.68 138.48 31.92C138.24 33.36 137.04 34.32 135.84 34.32ZM148.44 26.4L145.92 32.88H145.8L143.16 26.4H140.76L144.72 35.52L142.44 40.56H144.72L150.84 26.4H148.44ZM128.28 36H130.56V21H128.28V36Z" fill="#1C1C1C"/>
<path d="M12.48 9C12.12 9.36 11.88 9.96 11.88 10.68V37.2C11.88 37.92 12.12 38.52 12.48 38.88L12.6 39L27.48 24.12V24V23.88L12.48 9Z" fill="url(#paint0_linear_4587_5663)"/>
<path d="M32.4 29.16L27.48 24.24V24V23.88L32.4 18.96L32.52 19.08L38.4 22.44C40.08 23.4 40.08 24.96 38.4 25.92L32.4 29.16Z" fill="url(#paint1_linear_4587_5663)"/>
<path d="M32.52 29.04L27.48 24L12.48 39C13.08 39.6 13.92 39.6 15 39.12L32.52 29.04Z" fill="url(#paint2_linear_4587_5663)"/>
<path d="M32.52 18.9599L15 8.99994C13.92 8.39994 13.08 8.51994 12.48 9.11994L27.48 23.9999L32.52 18.9599Z" fill="url(#paint3_linear_4587_5663)"/>
<path opacity="0.2" d="M32.4 28.9199L15 38.7599C14.04 39.3599 13.2 39.2399 12.6 38.7599L12.48 38.8799L12.6 38.9999C13.2 39.4799 14.04 39.5999 15 38.9999L32.4 28.9199Z" fill="#151515"/>
<path opacity="0.12" d="M12.48 38.7601C12.12 38.4001 12 37.8001 12 37.0801V37.2001C12 37.9201 12.24 38.5201 12.6 38.8801V38.7601H12.48Z" fill="#151515"/>
<path opacity="0.12" d="M38.4 25.56L32.4 28.92L32.52 29.04L38.4 25.68C39.24 25.2 39.6 24.6 39.6 24C39.6 24.6 39.12 25.08 38.4 25.56Z" fill="#151515"/>
<path opacity="0.25" d="M14.9994 9.11995L38.3994 22.44C39.1194 22.92 39.5994 23.4 39.5994 24C39.5994 23.4 39.2394 22.8 38.3994 22.32L14.9994 8.99995C13.3194 8.03995 11.9994 8.87995 11.9994 10.8V10.92C11.9994 8.99995 13.3194 8.15995 14.9994 9.11995Z" fill="white"/>
<defs>
<linearGradient id="paint0_linear_4587_5663" x1="26.1596" y1="10.4516" x2="6.02076" y2="30.5905" gradientUnits="userSpaceOnUse">
<stop stop-color="#00A0FF"/>
<stop offset="0.00657445" stop-color="#00A1FF"/>
<stop offset="0.2601" stop-color="#00BEFF"/>
<stop offset="0.5122" stop-color="#00D2FF"/>
<stop offset="0.7604" stop-color="#00DFFF"/>
<stop offset="1" stop-color="#00E3FF"/>
</linearGradient>
<linearGradient id="paint1_linear_4587_5663" x1="40.6013" y1="24.0016" x2="11.565" y2="24.0016" gradientUnits="userSpaceOnUse">
<stop stop-color="#FFE000"/>
<stop offset="0.4087" stop-color="#FFBD00"/>
<stop offset="0.7754" stop-color="#FFA500"/>
<stop offset="1" stop-color="#FF9C00"/>
</linearGradient>
<linearGradient id="paint2_linear_4587_5663" x1="29.7924" y1="26.7553" x2="2.48242" y2="54.0653" gradientUnits="userSpaceOnUse">
<stop stop-color="#FF3A44"/>
<stop offset="1" stop-color="#C31162"/>
</linearGradient>
<linearGradient id="paint3_linear_4587_5663" x1="8.75674" y1="0.211381" x2="20.9519" y2="12.4064" gradientUnits="userSpaceOnUse">
<stop stop-color="#32A071"/>
<stop offset="0.0685" stop-color="#2DA771"/>
<stop offset="0.4762" stop-color="#15CF74"/>
<stop offset="0.8009" stop-color="#06E775"/>
<stop offset="1" stop-color="#00F076"/>
</linearGradient>
</defs>
</svg>