<svg width="104" height="141" viewBox="0 0 104 141" fill="none" xmlns="http://www.w3.org/2000/svg">
<path opacity="0.08" d="M74.544 66.0573L74.4167 65.5737L74.4808 66.5533L74.544 66.0573ZM5.50191 46.3588H5.00191V46.8588H5.50191V46.3588ZM28.711 46.3588V46.8588H29.2057L29.2109 46.3641L28.711 46.3588ZM41.9733 58.4509V57.9509H41.4733V58.4509H41.9733ZM41.9733 76.7841H41.4733V77.2841H41.9733V76.7841ZM24.4202 93.362L24.9202 93.3568L24.915 92.862H24.4202V93.362ZM1.01612 93.362V92.862H0.519558L0.516134 93.3586L1.01612 93.362ZM50.5548 141.45C66.8283 141.45 80.1122 137.088 89.3387 129.662C98.5733 122.23 103.714 111.751 103.714 99.6031H102.714C102.714 111.445 97.7129 121.639 88.7117 128.883C79.7026 136.134 66.6569 140.45 50.5548 140.45V141.45ZM103.714 99.6031C103.714 87.9503 99.1651 79.7732 93.2393 74.3433C87.3276 68.9262 80.0603 66.2553 74.6071 65.5613L74.4808 66.5533C79.7545 67.2245 86.8222 69.8195 92.5637 75.0805C98.2912 80.3287 102.714 88.2419 102.714 99.6031H103.714ZM74.6712 66.5408C85.9687 63.5678 97.4729 53.6452 97.4729 36.022H96.4729C96.4729 53.1149 85.3531 62.6957 74.4167 65.5737L74.6712 66.5408ZM97.4729 36.022C97.4729 25.4401 93.1652 16.4701 85.3161 10.1561C77.4767 3.85004 66.1417 0.220854 52.115 0.220854V1.22085C65.9783 1.22085 77.0721 4.80793 84.6893 10.9353C92.2965 17.0547 96.4729 25.7353 96.4729 36.022H97.4729ZM52.115 0.220854C37.0079 0.220854 25.2129 4.39133 17.1945 12.286C9.17495 20.1818 5.00191 31.7349 5.00191 46.3588H6.00191C6.00191 31.9227 10.1178 20.6568 17.8961 12.9986C25.6754 5.33933 37.187 1.22085 52.115 1.22085V0.220854ZM5.50191 46.8588H28.711V45.8588H5.50191V46.8588ZM29.2109 46.3641C29.3073 37.3018 32.0986 31.4056 36.2332 27.7671C40.3787 24.119 45.9495 22.6746 51.725 22.6746V21.6746C45.7984 21.6746 39.9597 23.1557 35.5725 27.0164C31.1744 30.8868 28.3096 37.0827 28.211 46.3535L29.2109 46.3641ZM51.725 22.6746C57.5001 22.6746 62.6464 24.1192 66.3371 27.0055C70.0116 29.8792 72.2887 34.2158 72.2887 40.1177H73.2887C73.2887 33.9276 70.8849 29.2926 66.9531 26.2178C63.0374 23.1555 57.6518 21.6746 51.725 21.6746V22.6746ZM72.2887 40.1177C72.2887 43.9466 71.3792 48.3803 67.9701 51.8599C64.5624 55.3381 58.5707 57.9509 48.2144 57.9509V58.9509C58.7267 58.9509 65.0221 56.2978 68.6844 52.5598C72.3453 48.8231 73.2887 44.0903 73.2887 40.1177H72.2887ZM48.2144 57.9509H41.9733V58.9509H48.2144V57.9509ZM41.4733 58.4509V76.7841H42.4733V58.4509H41.4733ZM41.9733 77.2841H49.3846V76.2841H41.9733V77.2841ZM49.3846 77.2841C59.1683 77.2841 66.1592 79.4647 70.6951 83.1219C75.2156 86.7667 77.3595 91.9279 77.3595 98.0428H78.3595C78.3595 91.6756 76.1152 86.2075 71.3228 82.3434C66.5458 78.4918 59.2993 76.2841 49.3846 76.2841V77.2841ZM77.3595 98.0428C77.3595 105.387 74.2219 110.65 69.4487 114.093C64.6564 117.55 58.1856 119.192 51.5299 119.192V120.192C58.3316 120.192 65.0256 118.517 70.0338 114.904C75.061 111.278 78.3595 105.716 78.3595 98.0428H77.3595ZM51.5299 119.192C44.2963 119.192 37.697 117.311 32.8892 113.169C28.093 109.038 25.0165 102.603 24.9202 93.3568L23.9202 93.3672C24.019 102.845 27.1835 109.574 32.2366 113.927C37.278 118.27 44.136 120.192 51.5299 120.192V119.192ZM24.4202 92.862H1.01612V93.862H24.4202V92.862ZM0.516134 93.3586C0.417999 107.588 4.29491 119.627 12.555 128.11C20.8173 136.595 33.3959 141.45 50.5548 141.45V140.45C33.5827 140.45 21.2945 135.652 13.2714 127.412C5.24615 119.171 1.41921 107.416 1.51611 93.3655L0.516134 93.3586Z" fill="white"/>
</svg>
