<svg width="64" height="64" viewBox="0 0 64 64" fill="none" xmlns="http://www.w3.org/2000/svg">
<path d="M0 19.2C0 12.4794 0 9.11906 1.30792 6.55211C2.4584 4.29417 4.29417 2.4584 6.55211 1.30792C9.11906 0 12.4794 0 19.2 0H44.8C51.5206 0 54.8809 0 57.4479 1.30792C59.7058 2.4584 61.5416 4.29417 62.6921 6.55211C64 9.11906 64 12.4794 64 19.2V44.8C64 51.5206 64 54.8809 62.6921 57.4479C61.5416 59.7058 59.7058 61.5416 57.4479 62.6921C54.8809 64 51.5206 64 44.8 64H19.2C12.4794 64 9.11906 64 6.55211 62.6921C4.29417 61.5416 2.4584 59.7058 1.30792 57.4479C0 54.8809 0 51.5206 0 44.8V19.2Z" fill="white"/>
<path d="M24.5797 22.9507C24.5794 23.6364 24.2964 24.294 23.7931 24.7787C23.2897 25.2633 22.6072 25.5354 21.8958 25.5351C21.1843 25.5347 20.5021 25.262 19.9993 24.7768C19.4964 24.2917 19.2141 23.6338 19.2145 22.9481C19.2148 22.2623 19.4978 21.6047 20.0011 21.1201C20.5045 20.6354 21.187 20.3633 21.8984 20.3636C22.6099 20.364 23.2921 20.6367 23.795 21.1219C24.2978 21.6071 24.5801 22.2649 24.5797 22.9507ZM24.6602 27.4498H19.295V43.6364H24.6602V27.4498ZM33.1373 27.4498H27.7989V43.6364H33.0836V35.1423C33.0836 30.4104 39.4817 29.9709 39.4817 35.1423V43.6364H44.7799V33.384C44.7799 25.4071 35.3102 25.7044 33.0836 29.6218L33.1373 27.4498Z" fill="#0073B1"/>
</svg>
