<svg width="44" height="44" viewBox="0 0 44 44" fill="none" xmlns="http://www.w3.org/2000/svg">
<path d="M0 12.8C0 8.31958 0 6.07937 0.871948 4.36808C1.63893 2.86278 2.86278 1.63893 4.36808 0.871948C6.07937 0 8.31958 0 12.8 0H31.2C35.6804 0 37.9206 0 39.6319 0.871948C41.1372 1.63893 42.3611 2.86278 43.1281 4.36808C44 6.07937 44 8.31958 44 12.8V31.2C44 35.6804 44 37.9206 43.1281 39.6319C42.3611 41.1372 41.1372 42.3611 39.6319 43.1281C37.9206 44 35.6804 44 31.2 44H12.8C8.31958 44 6.07937 44 4.36808 43.1281C2.86278 42.3611 1.63893 41.1372 0.871948 39.6319C0 37.9206 0 35.6804 0 31.2V12.8Z" fill="#343434"/>
<path d="M22 12.3189C25.1533 12.3189 25.5264 12.3311 26.7719 12.3878C27.9232 12.4403 28.5485 12.6325 28.9647 12.7942C29.4783 12.9833 29.9428 13.2853 30.3241 13.6778C30.7166 14.0591 31.0186 14.5236 31.2077 15.0372C31.3694 15.4534 31.5616 16.0788 31.6141 17.23C31.6708 18.4755 31.683 18.8486 31.683 22.0019C31.683 25.1552 31.6708 25.5283 31.6141 26.7738C31.5616 27.925 31.3694 28.5503 31.2077 28.9666C31.011 29.4757 30.71 29.9381 30.3241 30.3241C29.9381 30.71 29.4757 31.011 28.9666 31.2077C28.5503 31.3694 27.925 31.5616 26.7738 31.6141C25.5288 31.6708 25.1552 31.683 22.0019 31.683C18.8486 31.683 18.475 31.6708 17.23 31.6141C16.0788 31.5616 15.4535 31.3694 15.0372 31.2077C14.5237 31.0186 14.0591 30.7166 13.6778 30.3241C13.2853 29.9428 12.9833 29.4782 12.7943 28.9647C12.6325 28.5484 12.4403 27.9231 12.3878 26.7719C12.3311 25.5264 12.3189 25.1533 12.3189 22C12.3189 18.8467 12.3311 18.4736 12.3878 17.2281C12.4403 16.0769 12.6325 15.4516 12.7943 15.0353C12.9833 14.5218 13.2853 14.0572 13.6778 13.6759C14.0591 13.2834 14.5237 12.9814 15.0372 12.7923C15.4535 12.6306 16.0788 12.4384 17.23 12.3859C18.4755 12.3292 18.8486 12.317 22.0019 12.317L22 12.3189ZM22.0019 10.1894C18.7947 10.1894 18.3925 10.203 17.133 10.2606C15.8735 10.3183 15.0157 10.5194 14.2657 10.8109C13.4775 11.1076 12.7634 11.5725 12.1732 12.1731C11.5725 12.7634 11.1077 13.4775 10.811 14.2656C10.5194 15.0156 10.3197 15.8753 10.2625 17.132C10.2053 18.3888 10.1913 18.7928 10.1913 22C10.1913 25.2072 10.2049 25.6094 10.2625 26.8689C10.3202 28.1284 10.5194 28.9844 10.811 29.7344C11.1078 30.5222 11.5726 31.2359 12.1732 31.8259C12.7632 32.4269 13.4773 32.892 14.2657 33.1886C15.0157 33.4806 15.8753 33.6803 17.1321 33.7375C18.3888 33.7947 18.7938 33.8088 22.001 33.8088C25.2082 33.8088 25.6103 33.7952 26.8699 33.7375C28.1294 33.6798 28.9844 33.4806 29.7344 33.1886C30.5191 32.8854 31.2318 32.4215 31.8267 31.8266C32.4215 31.2318 32.8854 30.5191 33.1886 29.7344C33.4807 28.9844 33.6803 28.1247 33.7375 26.868C33.7947 25.6113 33.8088 25.2063 33.8088 21.9991C33.8088 18.7919 33.7952 18.3897 33.7375 17.1302C33.6799 15.8706 33.4807 15.0156 33.1886 14.2656C32.8922 13.4777 32.4275 12.764 31.8269 12.1741C31.2367 11.5731 30.5227 11.1079 29.7344 10.8109C28.9844 10.5194 28.1247 10.3197 26.868 10.2625C25.6113 10.2053 25.2072 10.1913 22 10.1913L22.0019 10.1894Z" fill="white"/>
<path d="M21.9997 15.9362C20.8004 15.9362 19.6281 16.2919 18.6309 16.9582C17.6337 17.6245 16.8565 18.5715 16.3976 19.6795C15.9386 20.7875 15.8185 22.0067 16.0525 23.183C16.2865 24.3592 16.864 25.4397 17.712 26.2877C18.56 27.1357 19.6405 27.7133 20.8167 27.9472C21.993 28.1812 23.2122 28.0611 24.3202 27.6022C25.4282 27.1432 26.3753 26.366 27.0416 25.3688C27.7078 24.3716 28.0635 23.1993 28.0635 22C28.0635 21.2037 27.9067 20.4151 27.602 19.6794C27.2973 18.9437 26.8507 18.2752 26.2876 17.7121C25.7245 17.149 25.056 16.7024 24.3203 16.3977C23.5846 16.093 22.796 15.9362 21.9997 15.9362ZM21.9997 25.9375C21.221 25.9375 20.4597 25.7066 19.8122 25.2739C19.1647 24.8412 18.66 24.2263 18.362 23.5068C18.0639 22.7873 17.986 21.9956 18.1379 21.2318C18.2898 20.468 18.6648 19.7664 19.2155 19.2158C19.7662 18.6651 20.4678 18.2901 21.2316 18.1381C21.9954 17.9862 22.7871 18.0642 23.5065 18.3622C24.226 18.6602 24.841 19.1649 25.2736 19.8124C25.7063 20.4599 25.9372 21.2212 25.9372 22C25.9372 23.0443 25.5224 24.0458 24.784 24.7842C24.0455 25.5226 23.044 25.9375 21.9997 25.9375Z" fill="white"/>
<path d="M28.3038 17.1133C29.0864 17.1133 29.7208 16.4789 29.7208 15.6963C29.7208 14.9136 29.0864 14.2792 28.3038 14.2792C27.5211 14.2792 26.8867 14.9136 26.8867 15.6963C26.8867 16.4789 27.5211 17.1133 28.3038 17.1133Z" fill="white"/>
</svg>
