<svg width="64" height="64" viewBox="0 0 64 64" fill="none" xmlns="http://www.w3.org/2000/svg">
<path d="M0 19.2C0 12.4794 0 9.11906 1.30792 6.55211C2.4584 4.29417 4.29417 2.4584 6.55211 1.30792C9.11906 0 12.4794 0 19.2 0H44.8C51.5206 0 54.8809 0 57.4479 1.30792C59.7058 2.4584 61.5416 4.29417 62.6921 6.55211C64 9.11906 64 12.4794 64 19.2V44.8C64 51.5206 64 54.8809 62.6921 57.4479C61.5416 59.7058 59.7058 61.5416 57.4479 62.6921C54.8809 64 51.5206 64 44.8 64H19.2C12.4794 64 9.11906 64 6.55211 62.6921C4.29417 61.5416 2.4584 59.7058 1.30792 57.4479C0 54.8809 0 51.5206 0 44.8V19.2Z" fill="white"/>
<path fill-rule="evenodd" clip-rule="evenodd" d="M31.5902 26.5546L31.6521 27.5612L30.6199 27.4379C26.8624 26.9654 23.5797 25.3631 20.7925 22.6719L19.4299 21.3366L19.079 22.3227C18.3357 24.5208 18.8106 26.8422 20.359 28.4034C21.1848 29.2662 20.999 29.3895 19.5744 28.8759C19.079 28.7116 18.6454 28.5883 18.6041 28.65C18.4596 28.7938 18.9551 30.6632 19.3473 31.4027C19.8841 32.4299 20.9783 33.4365 22.1758 34.0322L23.1874 34.5047L21.99 34.5253C20.8338 34.5253 20.7925 34.5458 20.9164 34.9772C21.3293 36.3125 22.9603 37.73 24.7771 38.3463L26.0572 38.7777L24.9423 39.4351C23.2907 40.3801 21.35 40.9142 19.4093 40.9553C18.4802 40.9758 17.7163 41.058 17.7163 41.1196C17.7163 41.325 20.2351 42.4754 21.7009 42.9274C26.0985 44.2627 31.3218 43.6875 35.2445 41.4072C38.0316 39.7843 40.8188 36.559 42.1195 33.4365C42.8214 31.7725 43.5234 28.7321 43.5234 27.2736C43.5234 26.3286 43.5853 26.2053 44.7415 25.0755C45.4228 24.4181 46.0628 23.6991 46.1867 23.4936C46.3931 23.1033 46.3725 23.1033 45.3195 23.4526C43.5647 24.0688 43.3169 23.9867 44.184 23.0622C44.8241 22.4049 45.5879 21.2134 45.5879 20.8641C45.5879 20.8025 45.2783 20.9052 44.9273 21.0901C44.5557 21.2955 43.7298 21.6037 43.1105 21.7886L41.9956 22.1378L40.984 21.4599C40.4265 21.0901 39.642 20.6792 39.2291 20.556C38.1762 20.2684 36.5658 20.3095 35.6161 20.6381C33.0354 21.5626 31.4044 23.9456 31.5902 26.5546Z" fill="#1DA1F2"/>
</svg>
