<svg width="55" height="137" viewBox="0 0 55 137" fill="none" xmlns="http://www.w3.org/2000/svg">
<path opacity="0.08" d="M29.2698 137H28.7698V137.5H29.2698V137ZM54.2342 137V137.5H54.7342V137H54.2342ZM54.2342 0.476161H54.7342V-0.023839H54.2342V0.476161ZM29.2698 0.476161V-0.023839H28.9006L28.7919 0.329118L29.2698 0.476161ZM0.989899 21.3448L0.936159 20.8477L0.489899 20.8959V21.3448H0.989899ZM0.989899 41.8234H0.489899V42.3326L0.998989 42.3233L0.989899 41.8234ZM29.2698 31.4866H29.7698V30.2304L28.9066 31.143L29.2698 31.4866ZM29.2698 137.5H54.2342V136.5H29.2698V137.5ZM54.7342 137V0.476161H53.7342V137H54.7342ZM54.2342 -0.023839H29.2698V0.976161H54.2342V-0.023839ZM28.7919 0.329118C26.8715 6.57054 23.4713 11.3039 18.7873 14.6735C14.0972 18.0474 8.09169 20.0741 0.936159 20.8477L1.04364 21.8419C8.32063 21.0552 14.5047 18.9862 19.3713 15.4852C24.244 11.9799 27.7675 7.059 29.7477 0.623204L28.7919 0.329118ZM0.489899 21.3448V41.8234H1.4899V21.3448H0.489899ZM0.998989 42.3233C11.79 42.1271 22.6755 39.1853 29.6331 31.8302L28.9066 31.143C22.2117 38.2204 11.6436 41.1296 0.98081 41.3235L0.998989 42.3233ZM28.7698 31.4866V137H29.7698V31.4866H28.7698Z" fill="white"/>
</svg>
