<svg width="44" height="44" viewBox="0 0 44 44" fill="none" xmlns="http://www.w3.org/2000/svg">
<path d="M0 12.8C0 8.31958 0 6.07937 0.871948 4.36808C1.63893 2.86278 2.86278 1.63893 4.36808 0.871948C6.07937 0 8.31958 0 12.8 0H31.2C35.6804 0 37.9206 0 39.6319 0.871948C41.1372 1.63893 42.3611 2.86278 43.1281 4.36808C44 6.07937 44 8.31958 44 12.8V31.2C44 35.6804 44 37.9206 43.1281 39.6319C42.3611 41.1372 41.1372 42.3611 39.6319 43.1281C37.9206 44 35.6804 44 31.2 44H12.8C8.31958 44 6.07937 44 4.36808 43.1281C2.86278 42.3611 1.63893 41.1372 0.871948 39.6319C0 37.9206 0 35.6804 0 31.2V12.8Z" fill="#343434"/>
<path fill-rule="evenodd" clip-rule="evenodd" d="M23.3599 31V22.499H25.8069L26.1311 19.5695H23.3599L23.3641 18.1033C23.3641 17.3392 23.4398 16.9298 24.5841 16.9298H26.1138V14H23.6665C20.727 14 19.6923 15.4211 19.6923 17.811V19.5698H17.86V22.4993H19.6923V31H23.3599Z" fill="white"/>
</svg>
