<svg width="95" height="139" viewBox="0 0 95 139" fill="none" xmlns="http://www.w3.org/2000/svg">
<path opacity="0.08" d="M0.281419 139H-0.218581V139.5H0.281419V139ZM94.6779 139V139.5H95.1779V139H94.6779ZM94.6779 118.326H95.1779V117.826H94.6779V118.326ZM28.7564 118.326H28.2564V118.826H28.7564V118.326ZM57.4264 86.9259L57.1778 86.4921L57.1729 86.4949L57.4264 86.9259ZM2.03673 48.1141H1.53673V48.6141H2.03673V48.1141ZM26.2209 48.1141V48.6141H26.7209V48.1141H26.2209ZM69.9086 41.678L69.4086 41.6713L69.4086 41.6718L69.9086 41.678ZM36.9478 75.0288L37.2003 75.4604L37.2031 75.4588L36.9478 75.0288ZM0.281419 139.5H94.6779V138.5H0.281419V139.5ZM95.1779 139V118.326H94.1779V139H95.1779ZM94.6779 117.826H28.7564V118.826H94.6779V117.826ZM29.2564 118.326V117.351H28.2564V118.326H29.2564ZM29.2564 117.351C29.2564 112.25 31.3727 107.687 35.9903 102.925C40.6215 98.1495 47.7396 93.2041 57.6799 87.3569L57.1729 86.4949C47.2198 92.3497 40.0028 97.3511 35.2724 102.229C30.5284 107.122 28.2564 111.921 28.2564 117.351H29.2564ZM57.675 87.3597C74.9793 77.4438 95.3729 66.3893 95.3729 40.1177H94.3729C94.3729 65.7253 74.5896 76.5146 57.1778 86.4921L57.675 87.3597ZM95.3729 40.1177C95.3729 28.4881 91.2792 18.4959 83.3578 11.4162C75.4419 4.34139 63.7558 0.220854 48.6499 0.220854V1.22085C63.5792 1.22085 75.0046 5.29175 82.6914 12.1618C90.3728 19.0271 94.3729 28.7334 94.3729 40.1177H95.3729ZM48.6499 0.220854C32.459 0.220854 20.6639 5.03158 12.9176 12.9759C5.17455 20.9168 1.53673 31.9274 1.53673 44.2134H2.53673C2.53673 32.1202 6.11516 21.3845 13.6335 13.674C21.1487 5.96681 32.6601 1.22085 48.6499 1.22085V0.220854ZM1.53673 44.2134V48.1141H2.53673V44.2134H1.53673ZM2.03673 48.6141H26.2209V47.6141H2.03673V48.6141ZM26.7209 48.1141V45.3837H25.7209V48.1141H26.7209ZM26.7209 45.3837C26.7209 37.1038 29.2687 31.3988 33.2154 27.7593C37.17 24.1126 42.5941 22.4796 48.4548 22.4796V21.4796C42.4185 21.4796 36.7257 23.1621 32.5375 27.0242C28.3416 30.8935 25.7209 36.8906 25.7209 45.3837H26.7209ZM48.4548 22.4796C53.8457 22.4796 59.1368 23.7805 63.0441 26.8117C66.9303 29.8264 69.5042 34.5955 69.4086 41.6713L70.4085 41.6848C70.5079 34.328 67.8159 29.2478 63.657 26.0215C59.5192 22.8116 53.9859 21.4796 48.4548 21.4796V22.4796ZM69.4086 41.6718C69.3134 49.3853 65.8533 54.8175 60.0532 59.7271C54.2199 64.6649 46.0884 69.0201 36.6926 74.5989L37.2031 75.4588C46.5305 69.9206 54.7819 65.4993 60.6993 60.4904C66.6501 55.4532 70.3087 49.7685 70.4085 41.6842L69.4086 41.6718ZM36.6953 74.5973C22.319 83.0079 13.0762 91.3981 7.43482 100.784C1.79016 110.175 -0.218581 120.513 -0.218581 132.759H0.781419C0.781419 120.626 2.77087 110.485 8.29192 101.299C13.8162 92.1079 22.9066 83.8227 37.2003 75.4604L36.6953 74.5973ZM-0.218581 132.759V139H0.781419V132.759H-0.218581Z" fill="white"/>
</svg>
