<svg width="44" height="44" viewBox="0 0 44 44" fill="none" xmlns="http://www.w3.org/2000/svg">
<path d="M0 12.8C0 8.31958 0 6.07937 0.871948 4.36808C1.63893 2.86278 2.86278 1.63893 4.36808 0.871948C6.07937 0 8.31958 0 12.8 0H31.2C35.6804 0 37.9206 0 39.6319 0.871948C41.1372 1.63893 42.3611 2.86278 43.1281 4.36808C44 6.07937 44 8.31958 44 12.8V31.2C44 35.6804 44 37.9206 43.1281 39.6319C42.3611 41.1372 41.1372 42.3611 39.6319 43.1281C37.9206 44 35.6804 44 31.2 44H12.8C8.31958 44 6.07937 44 4.36808 43.1281C2.86278 42.3611 1.63893 41.1372 0.871948 39.6319C0 37.9206 0 35.6804 0 31.2V12.8Z" fill="#343434"/>
<path d="M16.8986 15.7786C16.8984 16.25 16.7038 16.7021 16.3578 17.0353C16.0117 17.3685 15.5425 17.5556 15.0534 17.5554C14.5643 17.5551 14.0953 17.3676 13.7496 17.0341C13.4039 16.7005 13.2098 16.2483 13.21 15.7768C13.2103 15.3053 13.4048 14.8533 13.7509 14.52C14.0969 14.1868 14.5661 13.9998 15.0552 14C15.5444 14.0002 16.0134 14.1878 16.3591 14.5213C16.7048 14.8548 16.8989 15.3071 16.8986 15.7786ZM16.954 18.8717H13.2654V30H16.954V18.8717ZM22.782 18.8717H19.1118V30H22.7451V24.1603C22.7451 20.9072 27.1437 20.605 27.1437 24.1603V30H30.7862V22.9515C30.7862 17.4674 24.2758 17.6718 22.7451 20.365L22.782 18.8717Z" fill="white"/>
</svg>
