<svg width="64" height="64" viewBox="0 0 64 64" fill="none" xmlns="http://www.w3.org/2000/svg">
<path fill-rule="evenodd" clip-rule="evenodd" d="M64 0H0V64H64V0ZM38.9411 18.0159C37.1295 17.9334 36.5868 17.9157 32.0002 17.9157L32.003 17.913C27.4164 17.913 26.8736 17.9307 25.062 18.0132C23.3875 18.0895 22.478 18.3691 21.8725 18.6043C21.1255 18.8794 20.4498 19.3186 19.8952 19.8895C19.3242 20.4441 18.885 21.1198 18.61 21.8668C18.3748 22.4723 18.0952 23.3818 18.0189 25.0564C17.9364 26.868 17.9186 27.4107 17.9186 31.9973C17.9186 36.5839 17.9364 37.1266 18.0189 38.9382C18.0952 40.6127 18.3748 41.5223 18.61 42.1277C18.885 42.8747 19.3242 43.5504 19.8952 44.105C20.4498 44.676 21.1255 45.1152 21.8725 45.3902C22.478 45.6255 23.3875 45.905 25.062 45.9814C26.873 46.0639 27.4164 46.0816 32.003 46.0816C36.5895 46.0816 37.133 46.0639 38.9439 45.9814C40.6184 45.905 41.528 45.6255 42.1334 45.3902C42.874 45.1042 43.5466 44.6664 44.108 44.105C44.6693 43.5436 45.1071 42.871 45.3932 42.1305C45.6284 41.525 45.908 40.6155 45.9843 38.9409C46.0668 37.1293 46.0845 36.5866 46.0845 32C46.0845 27.4134 46.0668 26.8707 45.9843 25.0591C45.908 23.3845 45.6284 22.475 45.3932 21.8695C45.1181 21.1226 44.6789 20.4469 44.108 19.8923C43.5533 19.3213 42.8776 18.8821 42.1307 18.607C41.5252 18.3718 40.6157 18.0923 38.9411 18.0159ZM24.9209 14.9218C26.753 14.838 27.338 14.8182 32.003 14.8182L32.0002 14.8209C36.6652 14.8209 37.253 14.8414 39.0809 14.9245C40.9089 15.0077 42.1593 15.2982 43.2502 15.7223C44.3968 16.1542 45.4354 16.8308 46.2939 17.705C47.1674 18.563 47.8433 19.6013 48.2745 20.7473C48.6993 21.8382 48.9891 23.0818 49.073 24.9139C49.1568 26.7459 49.1766 27.3309 49.1766 31.9959C49.1766 36.6609 49.1561 37.25 49.073 39.078C48.9898 40.9059 48.6993 42.1564 48.2745 43.2473C47.8335 44.3887 47.1588 45.4253 46.2935 46.2905C45.4282 47.1558 44.3916 47.8306 43.2502 48.2716C42.1593 48.6964 40.9157 48.9861 39.0836 49.07C37.2516 49.1539 36.6666 49.1736 32.0016 49.1736C27.3366 49.1736 26.7475 49.1532 24.9195 49.07C23.0916 48.9868 21.8411 48.6964 20.7502 48.2716C19.6036 47.8401 18.5649 47.1637 17.7066 46.2895C16.8331 45.4313 16.157 44.3932 15.7252 43.2473C15.3011 42.1564 15.0114 40.9114 14.9275 39.0793C14.8436 37.2473 14.8239 36.6623 14.8239 31.9973C14.8239 27.3323 14.8443 26.7445 14.9275 24.9166C15.0107 23.0886 15.3011 21.8382 15.7252 20.7473C16.1568 19.6009 16.8329 18.5622 17.7066 17.7036C18.5652 16.83 19.6038 16.1538 20.7502 15.7223C21.8411 15.2982 23.0889 15.0057 24.9209 14.9218ZM31.9997 23.1818C30.2553 23.1818 28.55 23.6991 27.0996 24.6683C25.6491 25.6374 24.5186 27.0149 23.8511 28.6265C23.1835 30.2382 23.0088 32.0116 23.3492 33.7225C23.6895 35.4334 24.5295 37.005 25.763 38.2385C26.9965 39.472 28.5681 40.312 30.279 40.6523C31.9899 40.9927 33.7633 40.818 35.375 40.1504C36.9866 39.4829 38.3641 38.3524 39.3333 36.9019C40.3024 35.4515 40.8197 33.7462 40.8197 32.0018C40.8198 30.8435 40.5917 29.6966 40.1485 28.6264C39.7053 27.5563 39.0556 26.584 38.2366 25.7649C37.4175 24.9459 36.4452 24.2962 35.3751 23.853C34.3049 23.4098 33.158 23.1817 31.9997 23.1818ZM31.9997 37.7291C30.8669 37.7291 29.7596 37.3932 28.8178 36.7639C27.8759 36.1345 27.1419 35.2401 26.7084 34.1936C26.2749 33.147 26.1615 31.9955 26.3825 30.8845C26.6035 29.7735 27.1489 28.753 27.9499 27.952C28.7509 27.1511 29.7714 26.6056 30.8824 26.3846C31.9933 26.1636 33.1449 26.277 34.1914 26.7105C35.2379 27.144 36.1324 27.8781 36.7617 28.8199C37.3911 29.7618 37.727 30.8691 37.727 32.0018C37.727 33.5208 37.1236 34.9775 36.0495 36.0516C34.9754 37.1257 33.5187 37.7291 31.9997 37.7291ZM43.2302 22.8282C43.2302 23.9665 42.3074 24.8893 41.1691 24.8893C40.0308 24.8893 39.108 23.9665 39.108 22.8282C39.108 21.6898 40.0308 20.767 41.1691 20.767C42.3074 20.767 43.2302 21.6898 43.2302 22.8282Z" fill="white"/>
</svg>
