<svg width="44" height="44" viewBox="0 0 44 44" fill="none" xmlns="http://www.w3.org/2000/svg">
<path d="M0 12.8C0 8.31958 0 6.07937 0.871948 4.36808C1.63893 2.86278 2.86278 1.63893 4.36808 0.871948C6.07937 0 8.31958 0 12.8 0H31.2C35.6804 0 37.9206 0 39.6319 0.871948C41.1372 1.63893 42.3611 2.86278 43.1281 4.36808C44 6.07937 44 8.31958 44 12.8V31.2C44 35.6804 44 37.9206 43.1281 39.6319C42.3611 41.1372 41.1372 42.3611 39.6319 43.1281C37.9206 44 35.6804 44 31.2 44H12.8C8.31958 44 6.07937 44 4.36808 43.1281C2.86278 42.3611 1.63893 41.1372 0.871948 39.6319C0 37.9206 0 35.6804 0 31.2V12.8Z" fill="#343434"/>
<path fill-rule="evenodd" clip-rule="evenodd" d="M21.7183 18.2563L21.7609 18.9483L21.0512 18.8636C18.4679 18.5387 16.2111 17.4371 14.2949 15.5869L13.3581 14.6689L13.1168 15.3468C12.6058 16.858 12.9323 18.454 13.9968 19.5274C14.5646 20.1205 14.4368 20.2053 13.4574 19.8522C13.1168 19.7392 12.8187 19.6545 12.7903 19.6968C12.691 19.7957 13.0316 21.0809 13.3013 21.5894C13.6703 22.2955 14.4226 22.9876 15.2459 23.3972L15.9414 23.722L15.1181 23.7361C14.3233 23.7361 14.2949 23.7502 14.38 24.0468C14.6639 24.9649 15.7852 25.9394 17.0343 26.3631L17.9143 26.6597L17.1478 27.1116C16.0123 27.7613 14.6781 28.1285 13.3439 28.1567C12.7052 28.1709 12.18 28.2273 12.18 28.2697C12.18 28.411 13.9116 29.2019 14.9194 29.5126C17.9427 30.4306 21.5338 30.0351 24.2306 28.4674C26.1468 27.3517 28.0629 25.1343 28.9571 22.9876C29.4397 21.8436 29.9223 19.7533 29.9223 18.7506C29.9223 18.1009 29.9649 18.0162 30.7598 17.2394C31.2282 16.7874 31.6682 16.2931 31.7533 16.1519C31.8953 15.8835 31.8811 15.8835 31.1572 16.1236C29.9507 16.5473 29.7804 16.4908 30.3765 15.8553C30.8165 15.4033 31.3417 14.5842 31.3417 14.3441C31.3417 14.3017 31.1288 14.3723 30.8875 14.4994C30.632 14.6407 30.0643 14.8525 29.6385 14.9796L28.872 15.2197L28.1765 14.7537C27.7933 14.4994 27.2539 14.217 26.97 14.1322C26.2461 13.9345 25.139 13.9627 24.4861 14.1887C22.7118 14.8243 21.5905 16.4626 21.7183 18.2563Z" fill="white"/>
</svg>
