<svg width="24" height="24" viewBox="0 0 24 24" fill="none" xmlns="http://www.w3.org/2000/svg">
<mask id="mask0_5356_53885" style="mask-type:alpha" maskUnits="userSpaceOnUse" x="1" y="1" width="22" height="22">
<circle cx="12" cy="12" r="11" fill="#D9D9D9"/>
</mask>
<g mask="url(#mask0_5356_53885)">
<mask id="path-2-inside-1_5356_53885" fill="white">
<path fill-rule="evenodd" clip-rule="evenodd" d="M9.01282 14.509C5.51055 15.7409 3 19.078 3 23.0014V23.5456C3 24.4241 3.71218 25.1363 4.59069 25.1363H19.4093C20.2878 25.1363 21 24.4241 21 23.5456V23.0014C21 19.078 18.4895 15.7409 14.9872 14.509C14.1175 15.0402 13.0946 15.3464 12 15.3464C10.9054 15.3464 9.88254 15.0402 9.01282 14.509Z"/>
</mask>
<path d="M9.01282 14.509L10.0553 12.8022L9.24492 12.3073L8.3492 12.6223L9.01282 14.509ZM14.9872 14.509L15.6508 12.6223L14.7551 12.3073L13.9448 12.8022L14.9872 14.509ZM5 23.0014C5 19.953 6.94979 17.3548 9.67644 16.3957L8.3492 12.6223C4.07131 14.127 1 18.203 1 23.0014H5ZM5 23.5456V23.0014H1V23.5456H5ZM4.59069 23.1363C4.81675 23.1363 5 23.3196 5 23.5456H1C1 25.5287 2.60761 27.1363 4.59069 27.1363V23.1363ZM19.4093 23.1363H4.59069V27.1363H19.4093V23.1363ZM19 23.5456C19 23.3196 19.1833 23.1363 19.4093 23.1363V27.1363C21.3924 27.1363 23 25.5287 23 23.5456H19ZM19 23.0014V23.5456H23V23.0014H19ZM14.3236 16.3957C17.0502 17.3548 19 19.953 19 23.0014H23C23 18.203 19.9287 14.127 15.6508 12.6223L14.3236 16.3957ZM13.9448 12.8022C13.3803 13.1469 12.7167 13.3464 12 13.3464V17.3464C13.4725 17.3464 14.8547 16.9335 16.0296 16.2159L13.9448 12.8022ZM12 13.3464C11.2833 13.3464 10.6198 13.1469 10.0553 12.8022L7.97039 16.2159C9.14532 16.9334 10.5275 17.3464 12 17.3464V13.3464Z" fill="white" mask="url(#path-2-inside-1_5356_53885)"/>
<circle cx="12" cy="8.77262" r="3.90909" stroke="white" stroke-width="2"/>
</g>
</svg>
